<svg xmlns="http://www.w3.org/2000/svg" data-osrs-icon="leaf" class=" osrs-icon" viewBox="0 0 48 48" shape-rendering="crispEdges" aria-hidden="true" focusable="false"><g class=""><rect x="27" y="3" width="3" height="3" fill="#674179"/><rect x="36" y="3" width="6" height="3" fill="#171510"/><rect x="24" y="6" width="6" height="3" fill="#9b69a9"/><rect x="30" y="6" width="3" height="3" fill="#171510"/><rect x="33" y="6" width="9" height="3" fill="#479f35"/><rect x="18" y="9" width="6" height="3" fill="#171510"/><rect x="24" y="9" width="3" height="3" fill="#e3d6b1"/><rect x="27" y="9" width="6" height="3" fill="#9b69a9"/><rect x="33" y="9" width="3" height="3" fill="#171510"/><rect x="36" y="9" width="3" height="3" fill="#479f35"/><rect x="39" y="9" width="3" height="3" fill="#27682b"/><rect x="15" y="12" width="3" height="3" fill="#171510"/><rect x="18" y="12" width="6" height="3" fill="#9b69a9"/><rect x="24" y="12" width="3" height="3" fill="#c3b99c"/><rect x="27" y="12" width="9" height="3" fill="#9b69a9"/><rect x="36" y="12" width="6" height="3" fill="#171510"/><rect x="12" y="15" width="3" height="3" fill="#171510"/><rect x="15" y="15" width="3" height="3" fill="#9b69a9"/><rect x="18" y="15" width="3" height="3" fill="#c3b99c"/><rect x="21" y="15" width="3" height="3" fill="#9b69a9"/><rect x="24" y="15" width="3" height="3" fill="#c3b99c"/><rect x="27" y="15" width="12" height="3" fill="#9b69a9"/><rect x="39" y="15" width="3" height="3" fill="#171510"/><rect x="9" y="18" width="3" height="3" fill="#479f35"/><rect x="12" y="18" width="3" height="3" fill="#c3b99c"/><rect x="15" y="18" width="3" height="3" fill="#9b69a9"/><rect x="18" y="18" width="3" height="3" fill="#c3b99c"/><rect x="21" y="18" width="3" height="3" fill="#9b69a9"/><rect x="24" y="18" width="3" height="3" fill="#c3b99c"/><rect x="27" y="18" width="6" height="3" fill="#9b69a9"/><rect x="33" y="18" width="3" height="3" fill="#c3b99c"/><rect x="36" y="18" width="3" height="3" fill="#9b69a9"/><rect x="39" y="18" width="3" height="3" fill="#674179"/><rect x="6" y="21" width="3" height="3" fill="#171510"/><rect x="9" y="21" width="3" height="3" fill="#84c947"/><rect x="12" y="21" width="3" height="3" fill="#c3b99c"/><rect x="15" y="21" width="3" height="3" fill="#9b69a9"/><rect x="18" y="21" width="3" height="3" fill="#c3b99c"/><rect x="21" y="21" width="6" height="3" fill="#674179"/><rect x="27" y="21" width="6" height="3" fill="#9b69a9"/><rect x="33" y="21" width="3" height="3" fill="#c3b99c"/><rect x="36" y="21" width="3" height="3" fill="#9b69a9"/><rect x="39" y="21" width="3" height="3" fill="#674179"/><rect x="6" y="24" width="3" height="3" fill="#479f35"/><rect x="9" y="24" width="6" height="3" fill="#84c947"/><rect x="15" y="24" width="18" height="3" fill="#171510"/><rect x="33" y="24" width="3" height="3" fill="#9b69a9"/><rect x="36" y="24" width="3" height="3" fill="#674179"/><rect x="6" y="27" width="3" height="3" fill="#479f35"/><rect x="9" y="27" width="3" height="3" fill="#84c947"/><rect x="12" y="27" width="6" height="3" fill="#479f35"/><rect x="18" y="27" width="3" height="3" fill="#27682b"/><rect x="21" y="27" width="12" height="3" fill="#479f35"/><rect x="33" y="27" width="3" height="3" fill="#171510"/><rect x="6" y="30" width="24" height="3" fill="#479f35"/><rect x="30" y="30" width="3" height="3" fill="#27682b"/><rect x="6" y="33" width="3" height="3" fill="#27682b"/><rect x="9" y="33" width="18" height="3" fill="#479f35"/><rect x="27" y="33" width="3" height="3" fill="#27682b"/><rect x="9" y="36" width="3" height="3" fill="#171510"/><rect x="12" y="36" width="3" height="3" fill="#27682b"/><rect x="15" y="36" width="6" height="3" fill="#479f35"/><rect x="21" y="36" width="3" height="3" fill="#27682b"/><rect x="24" y="36" width="3" height="3" fill="#171510"/><rect x="9" y="39" width="3" height="3" fill="#171510"/><rect x="6" y="42" width="3" height="3" fill="#171510"/></g></svg>