<svg xmlns="http://www.w3.org/2000/svg" width="64" height="64" viewBox="0 0 64 64"><rect width="64" height="64" fill="#484538"/><rect x="25" y="8" width="5" height="2" fill="#575141"/><rect x="21" y="23" width="1" height="1" fill="#423e33"/><rect x="54" y="37" width="3" height="1" fill="#514d3e"/><rect x="34" y="42" width="3" height="1" fill="#423e33"/><rect x="27" y="2" width="1" height="1" fill="#423e33"/><rect x="25" y="63" width="3" height="2" fill="#514d3e"/><rect x="31" y="1" width="2" height="1" fill="#3e3c31"/><rect x="51" y="4" width="2" height="1" fill="#423e33"/><rect x="50" y="9" width="2" height="1" fill="#423e33"/><rect x="44" y="24" width="5" height="2" fill="#423e33"/><rect x="39" y="6" width="2" height="1" fill="#4c483b"/><rect x="18" y="16" width="5" height="2" fill="#4c483b"/><rect x="40" y="26" width="1" height="2" fill="#514d3e"/><rect x="46" y="5" width="1" height="1" fill="#3e3c31"/><rect x="35" y="38" width="2" height="1" fill="#423e33"/><rect x="37" y="41" width="5" height="1" fill="#4c483b"/><rect x="45" y="0" width="3" height="1" fill="#575141"/><rect x="17" y="13" width="5" height="1" fill="#3e3c31"/><rect x="51" y="29" width="1" height="1" fill="#575141"/><rect x="49" y="51" width="3" height="2" fill="#423e33"/><rect x="27" y="35" width="1" height="2" fill="#575141"/><rect x="53" y="29" width="2" height="1" fill="#3e3c31"/><rect x="23" y="4" width="3" height="1" fill="#3e3c31"/><rect x="48" y="20" width="3" height="2" fill="#4c483b"/><rect x="36" y="3" width="2" height="1" fill="#3e3c31"/><rect x="16" y="47" width="2" height="1" fill="#514d3e"/><rect x="11" y="36" width="2" height="1" fill="#3e3c31"/><rect x="1" y="23" width="3" height="2" fill="#4c483b"/><rect x="32" y="37" width="1" height="1" fill="#514d3e"/><rect x="53" y="56" width="5" height="1" fill="#575141"/><rect x="45" y="28" width="2" height="1" fill="#3e3c31"/><rect x="63" y="34" width="2" height="2" fill="#423e33"/><rect x="1" y="36" width="1" height="2" fill="#4c483b"/><rect x="39" y="29" width="2" height="1" fill="#575141"/><rect x="41" y="49" width="2" height="1" fill="#4c483b"/><rect x="25" y="9" width="3" height="1" fill="#4c483b"/><rect x="15" y="57" width="1" height="1" fill="#3e3c31"/><rect x="31" y="51" width="2" height="1" fill="#423e33"/><rect x="27" y="23" width="1" height="1" fill="#4c483b"/><rect x="4" y="50" width="1" height="1" fill="#575141"/><rect x="45" y="17" width="1" height="1" fill="#3e3c31"/><rect x="60" y="53" width="5" height="1" fill="#4c483b"/><rect x="38" y="33" width="1" height="1" fill="#575141"/><rect x="40" y="35" width="2" height="1" fill="#575141"/><rect x="6" y="59" width="5" height="2" fill="#514d3e"/><rect x="62" y="60" width="2" height="1" fill="#4c483b"/><rect x="9" y="15" width="1" height="2" fill="#423e33"/><rect x="42" y="25" width="1" height="1" fill="#514d3e"/><rect x="5" y="43" width="3" height="2" fill="#514d3e"/><rect x="11" y="26" width="2" height="2" fill="#3e3c31"/><rect x="6" y="20" width="1" height="1" fill="#514d3e"/><rect x="54" y="59" width="1" height="2" fill="#3e3c31"/><rect x="5" y="27" width="3" height="1" fill="#3e3c31"/><rect x="36" y="31" width="1" height="1" fill="#3e3c31"/><rect x="47" y="13" width="2" height="2" fill="#3e3c31"/><rect x="56" y="47" width="3" height="1" fill="#514d3e"/><rect x="63" y="31" width="2" height="1" fill="#423e33"/><rect x="13" y="2" width="3" height="2" fill="#4c483b"/><rect x="16" y="0" width="2" height="2" fill="#575141"/><rect x="24" y="25" width="5" height="1" fill="#3e3c31"/><rect x="25" y="9" width="5" height="2" fill="#514d3e"/><rect x="30" y="1" width="1" height="1" fill="#514d3e"/><rect x="27" y="23" width="5" height="1" fill="#423e33"/><rect x="16" y="12" width="2" height="2" fill="#423e33"/><rect x="61" y="60" width="2" height="2" fill="#4c483b"/><rect x="62" y="42" width="1" height="2" fill="#514d3e"/><rect x="34" y="48" width="5" height="1" fill="#423e33"/><rect x="60" y="3" width="1" height="1" fill="#514d3e"/><rect x="8" y="20" width="1" height="2" fill="#3e3c31"/><rect x="51" y="42" width="2" height="1" fill="#423e33"/><rect x="55" y="38" width="1" height="1" fill="#575141"/><rect x="27" y="17" width="1" height="1" fill="#575141"/><rect x="59" y="36" width="5" height="1" fill="#3e3c31"/><rect x="17" y="12" width="2" height="2" fill="#4c483b"/><rect x="40" y="47" width="1" height="1" fill="#423e33"/><rect x="18" y="7" width="1" height="1" fill="#423e33"/><rect x="10" y="48" width="5" height="2" fill="#3e3c31"/><rect x="33" y="23" width="3" height="2" fill="#423e33"/><rect x="27" y="56" width="5" height="2" fill="#423e33"/><rect x="7" y="18" width="5" height="1" fill="#423e33"/><rect x="35" y="31" width="1" height="1" fill="#3e3c31"/><rect x="33" y="24" width="3" height="2" fill="#3e3c31"/><rect x="9" y="7" width="1" height="1" fill="#3e3c31"/><rect x="13" y="7" width="3" height="1" fill="#423e33"/><rect x="9" y="36" width="5" height="2" fill="#4c483b"/><rect x="16" y="53" width="2" height="1" fill="#575141"/><rect x="31" y="17" width="5" height="1" fill="#4c483b"/><rect x="48" y="27" width="2" height="1" fill="#423e33"/><rect x="0" y="18" width="3" height="1" fill="#423e33"/><rect x="55" y="32" width="1" height="2" fill="#575141"/><rect x="4" y="14" width="3" height="2" fill="#4c483b"/><rect x="44" y="21" width="1" height="1" fill="#423e33"/><rect x="62" y="50" width="5" height="1" fill="#514d3e"/><rect x="41" y="22" width="5" height="1" fill="#3e3c31"/><rect x="18" y="16" width="3" height="1" fill="#423e33"/><path d="m7 18 9-1 4 2m18 23 8-1 5 2M4 54l8-1 4 2" fill="none" stroke="#353329"/></svg>